<?xml version="1.0" standalone="no"?>
<!DOCTYPE svg PUBLIC "-//W3C//DTD SVG 20010904//EN"
 "http://www.w3.org/TR/2001/REC-SVG-20010904/DTD/svg10.dtd">
<svg version="1.0" xmlns="http://www.w3.org/2000/svg"
 width="5906.000000pt" height="5906.000000pt" viewBox="0 0 5906.000000 5906.000000"
 preserveAspectRatio="xMidYMid meet">

<g transform="translate(0.000000,5906.000000) scale(0.100000,-0.100000)"
fill="#000000" stroke="none">
<path d="M18389 35169 c-3896 -5567 -7085 -10127 -7087 -10134 -4 -16 252 -20
3293 -46 2335 -20 2409 -20 2423 -2 7 10 1904 2692 4214 5961 3406 4817 4204
5941 4214 5930 7 -7 1872 -2679 4144 -5938 2272 -3259 4135 -5929 4140 -5933
7 -8 3412 5 5098 19 689 6 743 8 740 23 -4 25 -14071 20240 -14084 20241 -6 0
-3198 -4555 -7095 -10121z"/>
<path d="M32390 43243 c-788 -1127 -1434 -2053 -1437 -2059 -3 -10 2798 -4256
2837 -4299 10 -11 107 -148 217 -305 109 -157 1971 -2826 4137 -5932 l3938
-5648 267 0 c146 0 1441 7 2876 15 1436 8 2629 15 2653 15 36 0 43 3 40 18 -4
26 -14071 20241 -14084 20242 -6 0 -656 -921 -1444 -2047z"/>
<path d="M22529 29154 c-1570 -2242 -2861 -4087 -2869 -4100 -8 -13 -12 -26
-8 -29 4 -5 5050 -54 5574 -55 l131 0 1449 2051 c797 1128 1448 2055 1446
2061 -4 15 -2856 4148 -2863 4148 -3 0 -1290 -1834 -2860 -4076z"/>
</g>
</svg>
